<svg width="742" height="95.6" viewBox="0 0 742 95.6" xmlns="http://www.w3.org/2000/svg"><g id="svgGroup" stroke-linecap="round" fill-rule="evenodd" font-size="9pt" stroke="#ffffff" stroke-width="0.25mm" fill="#ffffff" style="stroke:#ffffff;stroke-width:0.25mm;fill:#ffffff"><path d="M 323.3 95.2 L 323.3 85.7 L 324.9 85.85 A 33.728 33.728 0 0 0 326.795 85.972 A 43.327 43.327 0 0 0 328.4 86 A 24.249 24.249 0 0 0 332.232 85.715 Q 334.289 85.386 335.984 84.675 A 12.903 12.903 0 0 0 337.45 83.95 Q 340.411 82.241 342.641 78.41 A 25.554 25.554 0 0 0 343.5 76.8 L 323.3 23.1 L 334.9 23.1 L 349.2 62.8 L 363.5 23.1 L 375.3 23.1 L 355.3 75.5 Q 351.3 85.8 345.1 90.7 A 21.928 21.928 0 0 1 336.433 94.792 Q 333.022 95.6 329 95.6 Q 327.32 95.6 326.047 95.51 A 21.613 21.613 0 0 1 324.9 95.4 L 323.3 95.2 Z M 564.3 76.1 L 552.9 76.1 L 552.9 23.1 L 564.3 23.1 L 564.3 30.8 L 564.9 30.8 Q 565.6 29.4 567.3 27.35 A 12.541 12.541 0 0 1 569.264 25.47 Q 570.25 24.703 571.473 24.014 A 22.192 22.192 0 0 1 572.05 23.7 A 12.874 12.874 0 0 1 575.153 22.579 Q 576.581 22.25 578.242 22.147 A 25.236 25.236 0 0 1 579.8 22.1 A 21.331 21.331 0 0 1 584.36 22.563 A 15.271 15.271 0 0 1 589.7 24.8 Q 593.7 27.5 595.75 32 A 23.043 23.043 0 0 1 597.745 40.153 A 27.345 27.345 0 0 1 597.8 41.9 L 597.8 76.1 L 586.4 76.1 L 586.4 43.1 A 14.398 14.398 0 0 0 585.858 39.066 A 11.598 11.598 0 0 0 583.75 35 A 8.533 8.533 0 0 0 578.771 31.993 A 13.281 13.281 0 0 0 575.9 31.7 A 13.38 13.38 0 0 0 573.043 31.989 Q 570.844 32.469 569.25 33.75 A 11.917 11.917 0 0 0 565.576 38.848 A 14.145 14.145 0 0 0 565.5 39.05 Q 564.3 42.3 564.3 46 L 564.3 76.1 Z M 115.3 41.6 L 104.5 41.6 L 104.05 40.1 Q 103.6 38.6 102.3 36.6 Q 101 34.6 98.45 33.1 Q 96.464 31.932 93.418 31.674 A 21.521 21.521 0 0 0 91.6 31.6 A 16.867 16.867 0 0 0 87.737 32.021 A 12.329 12.329 0 0 0 83.1 34.15 Q 79.7 36.7 77.95 40.8 A 22.162 22.162 0 0 0 76.2 49.527 A 25.211 25.211 0 0 0 76.2 49.6 A 22.246 22.246 0 0 0 77.79 58.015 A 21.499 21.499 0 0 0 77.95 58.4 Q 79.7 62.5 83.1 65.05 Q 86.5 67.6 91.6 67.6 Q 95.9 67.6 98.45 66.1 Q 100.955 64.627 102.254 62.671 A 8.649 8.649 0 0 0 102.3 62.6 A 21.248 21.248 0 0 0 103.093 61.285 Q 103.445 60.647 103.693 60.071 A 9.035 9.035 0 0 0 104.05 59.1 L 104.5 57.6 L 115.3 57.6 L 114.95 59.6 A 13.698 13.698 0 0 1 114.597 61.082 Q 114.153 62.597 113.3 64.5 A 19.691 19.691 0 0 1 111.552 67.582 A 26.848 26.848 0 0 1 109.4 70.3 A 17.818 17.818 0 0 1 105.921 73.262 A 24.438 24.438 0 0 1 102.45 75.15 A 20.364 20.364 0 0 1 98.213 76.483 Q 96.15 76.908 93.751 77.04 A 40.822 40.822 0 0 1 91.5 77.1 A 32.282 32.282 0 0 1 85.685 76.601 A 23.884 23.884 0 0 1 79.8 74.75 A 24.605 24.605 0 0 1 73.491 70.546 A 22.641 22.641 0 0 1 71.5 68.45 Q 68.2 64.5 66.55 59.6 Q 64.9 54.7 64.9 49.6 Q 64.9 44.5 66.55 39.6 Q 68.2 34.7 71.5 30.75 A 23.583 23.583 0 0 1 78.877 24.905 A 27.523 27.523 0 0 1 79.8 24.45 A 24.123 24.123 0 0 1 86.149 22.519 A 32.724 32.724 0 0 1 91.5 22.1 A 36.855 36.855 0 0 1 96.122 22.373 Q 98.46 22.669 100.426 23.287 A 18.453 18.453 0 0 1 102.45 24.05 A 24.303 24.303 0 0 1 106.033 26.013 A 17.742 17.742 0 0 1 109.4 28.9 A 26.848 26.848 0 0 1 111.552 31.619 A 19.691 19.691 0 0 1 113.3 34.7 Q 114.153 36.604 114.597 38.119 A 13.698 13.698 0 0 1 114.95 39.6 L 115.3 41.6 Z M 480.5 41.6 L 469.7 41.6 L 469.25 40.1 Q 468.8 38.6 467.5 36.6 Q 466.2 34.6 463.65 33.1 Q 461.664 31.932 458.618 31.674 A 21.521 21.521 0 0 0 456.8 31.6 A 16.867 16.867 0 0 0 452.937 32.021 A 12.329 12.329 0 0 0 448.3 34.15 Q 444.9 36.7 443.15 40.8 A 22.162 22.162 0 0 0 441.4 49.527 A 25.211 25.211 0 0 0 441.4 49.6 A 22.246 22.246 0 0 0 442.99 58.015 A 21.499 21.499 0 0 0 443.15 58.4 Q 444.9 62.5 448.3 65.05 Q 451.7 67.6 456.8 67.6 Q 461.1 67.6 463.65 66.1 Q 466.155 64.627 467.454 62.671 A 8.649 8.649 0 0 0 467.5 62.6 A 21.248 21.248 0 0 0 468.293 61.285 Q 468.645 60.647 468.893 60.071 A 9.035 9.035 0 0 0 469.25 59.1 L 469.7 57.6 L 480.5 57.6 L 480.15 59.6 A 13.698 13.698 0 0 1 479.797 61.082 Q 479.353 62.597 478.5 64.5 A 19.691 19.691 0 0 1 476.752 67.582 A 26.848 26.848 0 0 1 474.6 70.3 A 17.818 17.818 0 0 1 471.121 73.262 A 24.438 24.438 0 0 1 467.65 75.15 A 20.364 20.364 0 0 1 463.413 76.483 Q 461.35 76.908 458.951 77.04 A 40.822 40.822 0 0 1 456.7 77.1 A 32.282 32.282 0 0 1 450.885 76.601 A 23.884 23.884 0 0 1 445 74.75 A 24.605 24.605 0 0 1 438.691 70.546 A 22.641 22.641 0 0 1 436.7 68.45 Q 433.4 64.5 431.75 59.6 Q 430.1 54.7 430.1 49.6 Q 430.1 44.5 431.75 39.6 Q 433.4 34.7 436.7 30.75 A 23.583 23.583 0 0 1 444.077 24.905 A 27.523 27.523 0 0 1 445 24.45 A 24.123 24.123 0 0 1 451.349 22.519 A 32.724 32.724 0 0 1 456.7 22.1 A 36.855 36.855 0 0 1 461.322 22.373 Q 463.66 22.669 465.626 23.287 A 18.453 18.453 0 0 1 467.65 24.05 A 24.303 24.303 0 0 1 471.233 26.013 A 17.742 17.742 0 0 1 474.6 28.9 A 26.848 26.848 0 0 1 476.752 31.619 A 19.691 19.691 0 0 1 478.5 34.7 Q 479.353 36.604 479.797 38.119 A 13.698 13.698 0 0 1 480.15 39.6 L 480.5 41.6 Z M 540.8 49.8 L 540.8 52.9 L 503.2 52.9 A 18.544 18.544 0 0 0 504.838 59.545 A 17.226 17.226 0 0 0 507.3 63.4 Q 511 67.8 517.5 67.8 Q 520.4 67.8 522.502 67.032 A 9.243 9.243 0 0 0 523.6 66.55 A 14.908 14.908 0 0 0 525.368 65.477 Q 526.528 64.65 527.3 63.7 A 21.453 21.453 0 0 0 528.039 62.739 Q 528.406 62.232 528.683 61.773 A 8.755 8.755 0 0 0 529.15 60.9 L 529.7 59.7 L 540.3 59.7 L 539.8 61.45 Q 539.311 63.162 538.009 65.686 A 46.721 46.721 0 0 1 537.95 65.8 A 19.596 19.596 0 0 1 536.199 68.553 A 26.879 26.879 0 0 1 534.1 71 A 17.063 17.063 0 0 1 530.992 73.523 Q 529.422 74.53 527.5 75.35 A 20.361 20.361 0 0 1 523.261 76.607 Q 520.634 77.1 517.5 77.1 A 32.042 32.042 0 0 1 511.992 76.651 Q 508.678 76.072 505.95 74.75 A 23.252 23.252 0 0 1 499.52 70.214 A 21.762 21.762 0 0 1 497.95 68.45 Q 494.8 64.5 493.25 59.6 Q 491.7 54.7 491.7 49.6 Q 491.7 44.6 493.2 39.7 Q 494.7 34.8 497.8 30.8 A 22.063 22.063 0 0 1 505.402 24.599 A 25.445 25.445 0 0 1 505.7 24.45 A 22.473 22.473 0 0 1 511.818 22.519 A 30.66 30.66 0 0 1 517 22.1 A 26.409 26.409 0 0 1 523.876 22.963 A 21.971 21.971 0 0 1 529.35 25.25 Q 534.7 28.4 537.75 34.55 A 27.304 27.304 0 0 1 539.939 40.964 Q 540.585 43.966 540.746 47.435 A 50.91 50.91 0 0 1 540.8 49.8 Z M 699.1 49.8 L 699.1 52.9 L 661.5 52.9 A 18.544 18.544 0 0 0 663.138 59.545 A 17.226 17.226 0 0 0 665.6 63.4 Q 669.3 67.8 675.8 67.8 Q 678.7 67.8 680.802 67.032 A 9.243 9.243 0 0 0 681.9 66.55 A 14.908 14.908 0 0 0 683.668 65.477 Q 684.828 64.65 685.6 63.7 A 21.453 21.453 0 0 0 686.339 62.739 Q 686.706 62.232 686.983 61.773 A 8.755 8.755 0 0 0 687.45 60.9 L 688 59.7 L 698.6 59.7 L 698.1 61.45 Q 697.611 63.162 696.309 65.686 A 46.721 46.721 0 0 1 696.25 65.8 A 19.596 19.596 0 0 1 694.499 68.553 A 26.879 26.879 0 0 1 692.4 71 A 17.063 17.063 0 0 1 689.292 73.523 Q 687.722 74.53 685.8 75.35 A 20.361 20.361 0 0 1 681.561 76.607 Q 678.934 77.1 675.8 77.1 A 32.042 32.042 0 0 1 670.292 76.651 Q 666.978 76.072 664.25 74.75 A 23.252 23.252 0 0 1 657.82 70.214 A 21.762 21.762 0 0 1 656.25 68.45 Q 653.1 64.5 651.55 59.6 Q 650 54.7 650 49.6 Q 650 44.6 651.5 39.7 Q 653 34.8 656.1 30.8 A 22.063 22.063 0 0 1 663.702 24.599 A 25.445 25.445 0 0 1 664 24.45 A 22.473 22.473 0 0 1 670.118 22.519 A 30.66 30.66 0 0 1 675.3 22.1 A 26.409 26.409 0 0 1 682.176 22.963 A 21.971 21.971 0 0 1 687.65 25.25 Q 693 28.4 696.05 34.55 A 27.304 27.304 0 0 1 698.239 40.964 Q 698.885 43.966 699.046 47.435 A 50.91 50.91 0 0 1 699.1 49.8 Z M 226.7 76.1 L 214.6 76.1 L 194.7 23.1 L 206.4 23.1 L 220.8 62.8 L 234.9 23.1 L 246.7 23.1 L 226.7 76.1 Z M 133.6 60.3 L 133.6 32.3 L 124.3 32.3 L 124.3 23.1 L 133.6 23.1 L 133.6 9.9 L 145 9.9 L 145 23.1 L 157.4 23.1 L 157.4 32.3 L 145 32.3 L 145 60.1 Q 145 67.492 153.063 67.599 A 17.979 17.979 0 0 0 153.3 67.6 A 25.894 25.894 0 0 0 155.688 67.495 A 20.97 20.97 0 0 0 157.2 67.3 L 159 67 L 159 76.3 L 156.55 76.7 A 28.318 28.318 0 0 1 154.244 76.974 Q 152.656 77.1 150.8 77.1 Q 146.212 77.1 142.95 75.881 A 13.39 13.39 0 0 1 140.7 74.8 Q 136.9 72.5 135.25 68.65 A 20.712 20.712 0 0 1 133.617 61.208 A 24.024 24.024 0 0 1 133.6 60.3 Z M 289.9 60.3 L 289.9 32.3 L 280.6 32.3 L 280.6 23.1 L 289.9 23.1 L 289.9 9.9 L 301.3 9.9 L 301.3 23.1 L 313.7 23.1 L 313.7 32.3 L 301.3 32.3 L 301.3 60.1 Q 301.3 67.492 309.363 67.599 A 17.979 17.979 0 0 0 309.6 67.6 A 25.894 25.894 0 0 0 311.988 67.495 A 20.97 20.97 0 0 0 313.5 67.3 L 315.3 67 L 315.3 76.3 L 312.85 76.7 A 28.318 28.318 0 0 1 310.544 76.974 Q 308.956 77.1 307.1 77.1 Q 302.512 77.1 299.25 75.881 A 13.39 13.39 0 0 1 297 74.8 Q 293.2 72.5 291.55 68.65 A 20.712 20.712 0 0 1 289.917 61.208 A 24.024 24.024 0 0 1 289.9 60.3 Z M 615.4 60.3 L 615.4 32.3 L 606.1 32.3 L 606.1 23.1 L 615.4 23.1 L 615.4 9.9 L 626.8 9.9 L 626.8 23.1 L 639.2 23.1 L 639.2 32.3 L 626.8 32.3 L 626.8 60.1 Q 626.8 67.492 634.863 67.599 A 17.979 17.979 0 0 0 635.1 67.6 A 25.894 25.894 0 0 0 637.488 67.495 A 20.97 20.97 0 0 0 639 67.3 L 640.8 67 L 640.8 76.3 L 638.35 76.7 A 28.318 28.318 0 0 1 636.044 76.974 Q 634.456 77.1 632.6 77.1 Q 628.012 77.1 624.75 75.881 A 13.39 13.39 0 0 1 622.5 74.8 Q 618.7 72.5 617.05 68.65 A 20.712 20.712 0 0 1 615.417 61.208 A 24.024 24.024 0 0 1 615.4 60.3 Z M 40.4 31 L 41 31 L 41 23.1 L 52.4 23.1 L 52.4 76.1 L 41 76.1 L 41 68.2 L 40.4 68.2 Q 39.5 69.7 37.5 71.8 Q 35.634 73.76 32.592 75.284 A 25.973 25.973 0 0 1 32.15 75.5 Q 29.28 76.871 25.198 77.068 A 29.111 29.111 0 0 1 23.8 77.1 A 25.82 25.82 0 0 1 18.518 76.585 A 19.567 19.567 0 0 1 13.35 74.75 Q 8.9 72.4 5.9 68.45 Q 2.9 64.5 1.45 59.6 Q 0 54.7 0 49.6 Q 0 44.5 1.45 39.6 Q 2.9 34.7 5.9 30.75 Q 8.9 26.8 13.35 24.45 A 19.968 19.968 0 0 1 19.497 22.434 A 26.646 26.646 0 0 1 23.8 22.1 Q 28.8 22.1 32.15 23.7 A 22.445 22.445 0 0 1 34.78 25.168 Q 36.113 26.041 37.133 27.03 A 13.064 13.064 0 0 1 37.5 27.4 A 35.992 35.992 0 0 1 38.643 28.654 Q 39.706 29.882 40.316 30.862 A 10.06 10.06 0 0 1 40.4 31 Z M 722.8 76.1 L 711.4 76.1 L 711.4 23.1 L 722.8 23.1 L 722.8 30.1 L 723.2 30.1 Q 724.7 27 727.95 24.55 Q 730.367 22.728 734.415 22.261 A 26.091 26.091 0 0 1 737.4 22.1 Q 738.855 22.1 739.987 22.218 A 15.238 15.238 0 0 1 740.65 22.3 L 742 22.5 L 742 33.5 L 740.5 33.3 Q 739.097 33.113 737.343 33.101 A 35.372 35.372 0 0 0 737.1 33.1 A 19.79 19.79 0 0 0 732.913 33.516 Q 728.917 34.381 726.45 37.05 A 11.685 11.685 0 0 0 724.155 40.876 Q 722.885 44.215 722.805 49.137 A 41.115 41.115 0 0 0 722.8 49.8 L 722.8 76.1 Z M 183.6 76.1 L 172.2 76.1 L 172.2 23.1 L 183.6 23.1 L 183.6 76.1 Z M 269.3 76.1 L 257.9 76.1 L 257.9 23.1 L 269.3 23.1 L 269.3 76.1 Z M 26.3 31.6 A 14.963 14.963 0 0 0 22.384 32.09 A 11.592 11.592 0 0 0 18.1 34.25 Q 14.8 36.9 13.15 41 Q 11.5 45.1 11.5 49.6 Q 11.5 54.1 13.15 58.2 Q 14.8 62.3 18.1 64.95 A 11.892 11.892 0 0 0 23.81 67.413 A 16.016 16.016 0 0 0 26.3 67.6 A 14.913 14.913 0 0 0 30.133 67.131 A 11.348 11.348 0 0 0 34.45 64.95 A 16.442 16.442 0 0 0 39.298 58.328 A 19.217 19.217 0 0 0 39.35 58.2 Q 41 54.1 41 49.6 Q 41 45.1 39.35 41 A 16.667 16.667 0 0 0 35.52 35.204 A 16.203 16.203 0 0 0 34.45 34.25 A 11.617 11.617 0 0 0 28.926 31.81 A 15.837 15.837 0 0 0 26.3 31.6 Z M 503.3 44.9 L 529.8 44.9 A 21.987 21.987 0 0 0 529.234 40.932 Q 528.707 38.781 527.729 37.128 A 10.389 10.389 0 0 0 525.65 34.6 Q 521.9 31.3 516.9 31.3 A 14.129 14.129 0 0 0 512.215 32.05 A 12.264 12.264 0 0 0 507.6 34.95 A 13.946 13.946 0 0 0 504.092 40.84 A 19.978 19.978 0 0 0 503.3 44.9 Z M 661.6 44.9 L 688.1 44.9 A 21.987 21.987 0 0 0 687.534 40.932 Q 687.007 38.781 686.029 37.128 A 10.389 10.389 0 0 0 683.95 34.6 Q 680.2 31.3 675.2 31.3 A 14.129 14.129 0 0 0 670.515 32.05 A 12.264 12.264 0 0 0 665.9 34.95 A 13.946 13.946 0 0 0 662.392 40.84 A 19.978 19.978 0 0 0 661.6 44.9 Z M 175.222 13.571 A 7.471 7.471 0 0 0 177.8 14 Q 180.9 14 182.95 11.95 A 8.142 8.142 0 0 0 183.014 11.886 A 6.737 6.737 0 0 0 185 7 A 8.15 8.15 0 0 0 185 6.91 A 6.736 6.736 0 0 0 182.95 2.05 A 6.791 6.791 0 0 0 180.465 0.447 A 7.688 7.688 0 0 0 177.8 0 A 8.984 8.984 0 0 0 177.299 0.014 A 6.713 6.713 0 0 0 172.7 2.05 Q 170.7 4.1 170.7 7 Q 170.7 9.8 172.7 11.9 A 6.551 6.551 0 0 0 175.222 13.571 Z M 260.922 13.571 A 7.471 7.471 0 0 0 263.5 14 Q 266.6 14 268.65 11.95 A 8.142 8.142 0 0 0 268.714 11.886 A 6.737 6.737 0 0 0 270.7 7 A 8.15 8.15 0 0 0 270.7 6.91 A 6.736 6.736 0 0 0 268.65 2.05 A 6.791 6.791 0 0 0 266.165 0.447 A 7.688 7.688 0 0 0 263.5 0 A 8.984 8.984 0 0 0 262.999 0.014 A 6.713 6.713 0 0 0 258.4 2.05 Q 256.4 4.1 256.4 7 Q 256.4 9.8 258.4 11.9 A 6.551 6.551 0 0 0 260.922 13.571 Z" vector-effect="non-scaling-stroke"/></g></svg>